<svg width="146" height="172" viewBox="0 0 146 172" fill="none" xmlns="http://www.w3.org/2000/svg">
<path d="M118.407 16.2264C118.549 16.2514 118.663 16.2933 118.761 16.3291C119.081 16.4912 119.337 16.7693 119.46 17.1048C119.583 17.4403 119.581 17.7755 119.416 18.2095L119.215 18.7211L119.142 18.8977C118.977 19.3287 118.816 19.7417 118.635 20.151C118.316 20.8499 118.072 21.3758 117.82 21.8348C117.505 22.5127 117.085 23.197 116.758 23.7268L116.664 23.8998L116.546 24.0872C116.614 24.1644 116.65 24.2951 116.661 24.4648L116.704 24.7677L116.719 24.9163L116.743 25.1102L116.781 25.3468C117.028 26.3349 117.41 27.3685 117.933 28.4272C118.453 29.3794 119.006 30.1698 119.607 30.8224C121.189 32.487 123.136 33.877 124.838 35.0405C125.275 35.3474 125.695 35.6296 126.132 35.9395L126.297 36.0525C126.806 36.4155 127.315 36.7756 127.83 37.1211C128.925 37.8793 129.924 38.7047 130.853 39.4774C131.81 40.2985 132.768 41.244 133.657 42.3235C134.315 43.1105 134.93 43.9957 135.466 44.7643L135.564 44.906L136.036 45.5764C136.714 46.5783 137.319 47.6295 137.769 48.7373C138.223 49.8271 138.64 51.013 138.895 51.7292L139.233 52.6713C139.356 53.0068 139.433 53.356 139.517 53.6877L139.559 53.9033C139.681 54.45 139.804 54.9968 139.929 55.544C140.084 56.2425 140.175 56.9732 140.271 57.6613L140.329 58.1128L140.476 59.1891L140.491 59.3192L140.51 59.4467C140.538 59.6195 140.569 59.7928 140.581 59.944C140.599 60.0715 140.578 60.2791 140.563 60.3603C140.53 60.6467 140.415 60.816 140.293 61.0275L140.235 61.12C140.138 61.2925 139.785 61.5255 139.586 61.596C139.302 61.6705 139.072 61.6921 138.812 61.6463C138.711 61.6285 138.593 61.6077 138.496 61.572C138.243 61.484 138.023 61.3396 137.806 61.1771L137.697 61.0926C137.362 60.9093 137.016 60.7646 136.594 60.6063L136.324 60.4967C135.94 60.3452 135.616 60.2041 135.263 60.0985C134.833 59.9793 134.379 59.859 133.945 59.7609L133.609 59.6799C133.449 59.6518 133.313 59.6093 133.172 59.5843C132.915 59.5174 132.666 59.43 132.413 59.3451L132.337 59.31L132.043 59.2178C130.841 58.8166 129.762 58.3967 128.771 57.9674C128.218 57.724 127.572 57.4207 127.011 57.0082C126.702 56.7859 126.376 56.5389 126.07 56.2956L125.747 56.0492L125.382 55.7984L125.238 55.6891L125.128 55.6046C124.767 55.3328 124.458 55.1105 124.173 54.8709C123.655 54.444 123.204 53.9855 122.77 53.5517C121.308 52.1197 119.943 50.599 118.71 49.0365C118.543 48.8392 118.397 48.624 118.251 48.4118C118.088 48.1935 117.921 47.9747 117.758 47.7563C117.421 47.3397 117.091 46.9055 116.782 46.472C116.259 45.7491 115.849 44.9621 115.445 44.1576L115.415 44.0902L115.341 43.9497L115.294 43.8576C115.112 43.5117 114.934 43.1447 114.777 42.7814C114.68 42.5314 114.58 42.2839 114.484 42.0369L114.44 41.9453L114.341 41.6948L114.204 41.3351L114.118 41.1303L114.091 41.0634C113.911 40.5906 113.715 40.093 113.594 39.6522C113.532 39.433 113.47 39.2108 113.411 38.9705L113.379 38.8188L113.298 38.4876L113.348 38.9812L113.365 39.2141C113.399 40.0187 113.405 40.6475 113.457 41.247C113.472 41.921 113.554 42.5849 113.623 43.2061L113.673 43.6997C113.728 44.1692 113.778 44.6628 113.853 45.136C114.039 46.3465 114.243 47.7684 114.506 49.2223C114.741 50.4788 114.954 51.7563 115.168 53.0121L115.215 53.3155C115.36 54.18 115.511 55.024 115.676 55.8952C115.908 56.9645 116.114 58.0512 116.304 59.1133L116.323 59.2408L116.387 59.5473C116.531 60.2036 116.672 60.8779 116.817 61.5342C116.862 61.7317 116.89 61.9045 116.935 62.102L116.941 62.1868L116.964 62.2748C117.212 63.3658 117.522 64.682 117.922 66.2627C117.943 66.2664 117.994 66.3189 118.028 66.3653L118.729 67.2469C118.931 67.4906 119.149 67.7404 119.375 67.9696L119.443 68.0438L119.648 68.2695L119.699 68.3405C119.986 68.6645 120.45 69.1658 120.864 69.596C121.779 70.4283 122.712 71.18 123.759 71.8677C124.529 72.3824 125.367 72.8655 125.984 73.2072L126.056 73.2603L126.205 73.3486L126.97 73.7785C128.941 74.9242 130.769 76.1689 132.441 77.4918L132.942 77.897C133.625 78.4368 134.38 79.0297 135.045 79.6502C135.874 80.4052 136.823 81.287 137.69 82.26C138.352 83.026 139.129 83.9397 139.773 84.8953C140.173 85.5095 140.519 86.0737 140.807 86.6311C141.098 87.1639 141.341 87.732 141.541 88.2084L141.629 88.3917C142.202 89.6267 142.612 90.8332 142.917 92.0615C143.222 93.2713 143.45 94.3617 143.598 95.435L143.715 96.2326C143.869 97.1639 143.986 97.9615 144.061 98.646L144.156 99.3556L144.17 99.7155C144.27 100.386 144.442 101.653 144.49 102.817C144.494 103.343 144.491 103.908 144.477 104.515C144.47 104.663 144.464 104.808 144.433 104.97C144.38 105.253 144.185 105.955 143.544 106.178C143.19 106.305 142.914 106.34 142.692 106.301C142.612 106.287 142.536 106.252 142.422 106.21C142.121 106.055 141.995 105.948 141.739 105.67C141.704 105.645 141.687 105.621 141.65 105.592C141.445 105.367 141.308 105.218 141.196 105.05L140.927 104.729C140.692 104.436 140.525 104.238 140.354 104.041C140.018 103.751 139.616 103.469 139.247 103.237C138.755 102.898 138.256 102.58 137.736 102.278L137.105 101.896C136.088 101.276 135.121 100.705 134.167 100.077C133.376 99.5584 132.519 98.9663 131.463 98.2149L131.209 98.0211L131.137 97.9679C130.793 97.7178 130.488 97.4745 130.203 97.2348C129.65 96.7801 129.155 96.233 128.725 95.7781C128.534 95.5767 128.349 95.3547 128.182 95.1574C127.991 94.956 127.803 94.7551 127.619 94.5331C127.21 94.0633 126.824 93.5977 126.443 93.108L126.157 92.7654C125.891 92.4235 125.605 92.0809 125.339 91.739C124.976 91.2554 124.645 90.7124 124.442 90.3628C124.225 89.9891 124.036 89.6823 123.85 89.3544L123.686 89.0117L123.642 88.92C123.569 88.761 123.529 88.6483 123.464 88.5531L123.222 88.0909C123.007 87.6956 122.816 87.2829 122.627 86.8737C122.337 86.2135 122.01 85.4411 121.694 84.6086L121.647 84.5165L121.603 84.4249L121.576 84.358L121.665 84.8553L121.671 84.9402C121.769 85.6288 121.844 86.3162 121.96 87.0079C122.153 88.2787 122.325 89.5489 122.493 90.8401C122.674 92.174 122.815 93.3953 122.919 94.5882C123.038 95.7 123.068 96.7369 123.1 98.2124C123.107 98.6114 123.117 98.9923 123.124 99.3913L123.131 99.5604C123.156 100.301 123.159 101.057 123.164 101.791L123.164 102.338C123.179 102.468 123.198 102.596 123.192 102.722C123.181 102.782 123.186 102.867 123.15 102.945C123.159 103.008 123.147 103.072 123.152 103.156L123.195 103.478L123.256 103.802C123.314 104.046 123.376 104.265 123.452 104.508L123.563 104.907L123.589 104.995C123.768 105.679 123.952 106.339 124.158 107.007L124.186 107.074L124.225 107.186L124.335 107.479L124.463 107.899C124.661 108.481 124.863 109.064 125.041 109.639C125.143 109.974 125.269 110.288 125.371 110.623L125.437 110.824L125.456 110.93L125.486 111L125.526 111.11L125.579 111.269L125.658 111.512C125.812 112.003 125.964 112.511 126.094 113.016C126.169 113.284 126.237 113.566 126.332 113.838C126.435 114.169 126.523 114.459 126.574 114.741C126.722 115.376 126.868 116.008 126.992 116.66C127.483 118.972 127.294 121.502 127.082 123.712L127.048 124.103L127.021 124.248C126.857 125.773 126.678 127.357 126.297 128.822C126.114 129.461 125.878 130.156 125.614 130.908C125.34 131.593 124.975 132.306 124.708 132.846L124.614 133.019C124.342 133.581 124.075 134.121 123.783 134.678C123.653 134.929 123.527 135.159 123.376 135.406C123.25 135.635 123.099 135.882 122.969 136.133C122.676 136.712 122.342 137.262 122.077 137.675L122.044 137.753C121.738 138.268 121.47 138.703 121.221 139.144C121.16 139.257 121.119 139.356 121.037 139.466L120.855 139.769C120.7 140.037 120.545 140.324 120.386 140.613L120.158 141.054C119.967 141.4 119.773 141.763 119.589 142.088C119.345 142.508 119.1 142.925 118.856 143.345L118.73 143.575L118.665 143.691L118.611 143.765C118.306 144.277 118.003 144.792 117.715 145.329L117.615 145.519L117.553 145.636L117.461 145.893L117.27 146.257L117.209 146.352C117.072 146.642 116.93 146.953 116.774 147.242C116.767 147.281 116.742 147.299 116.734 147.341L116.588 147.567L116.534 147.641L116.441 147.793C116.368 147.969 116.263 148.181 116.04 148.393C115.714 148.693 115.255 148.821 114.835 148.747C114.537 148.694 114.236 148.539 114.014 148.288C113.724 147.964 113.628 147.487 113.551 147.135L113.533 147.007C113.427 146.485 113.318 145.963 113.217 145.419L113.194 145.31L113.157 145.073L113.065 144.572C112.984 144.244 112.936 143.835 112.906 143.348C112.881 143.048 112.85 142.773 112.804 142.469C112.682 141.693 112.534 141.057 112.363 140.44L112.338 140.349C112.29 140.278 112.29 140.278 112.294 140.257L112.228 140.059L112.205 139.971L111.976 139.322C111.784 138.803 111.599 138.267 111.41 137.73C111.251 137.261 111.093 136.792 110.934 136.323L111.053 136.344C110.828 136.012 110.697 135.61 110.534 135.162L110.415 134.805C110.27 134.379 110.145 133.959 110.02 133.517C109.893 133.094 109.806 132.681 109.706 132.244L109.684 132.134C109.477 131.259 109.365 130.335 109.286 129.103L109.284 129.018L109.279 128.934L109.402 129.039C109.147 126.58 109.261 124.017 109.791 121.445C110.191 119.436 110.955 117.262 112.128 114.78C112.299 114.431 112.469 114.082 112.635 113.735L112.667 113.679L112.838 113.329L113.011 112.962L113.045 112.881L113.077 112.825C113.324 112.281 113.624 111.684 114.032 111.063C114.154 110.852 114.293 110.668 114.43 110.48L114.536 110.353L114.593 110.279C114.728 110.114 114.839 109.965 114.929 109.813C115.297 109.291 115.637 108.804 115.953 108.334L116.009 108.26C116.185 107.977 116.329 107.769 116.464 107.604C116.595 107.459 116.724 107.314 116.859 107.151L116.915 107.077L117.048 106.7C117.159 106.551 117.273 106.382 117.363 106.23L117.452 106.1C117.567 105.93 117.653 105.799 117.736 105.686C117.878 105.482 118.042 105.28 118.182 105.072L118.408 104.754L118.522 104.588L118.578 104.514L118.697 104.324L118.747 104.27C118.862 104.101 118.918 104.027 118.972 103.953C119.193 103.674 119.407 103.42 119.638 103.166C119.802 102.964 119.924 102.756 120.067 102.548L120.165 102.357C120.229 102.241 120.287 102.146 120.347 102.054C120.337 101.884 120.337 101.673 120.331 101.482L120.329 101.376L120.326 100.956L120.327 100.515L120.316 100.367L120.309 100.176L120.308 100.07L120.306 99.7561L120.296 99.3751L120.294 99.061C120.29 98.5351 120.268 98.006 120.264 97.4801C120.228 95.2705 119.954 93.1215 119.685 91.0574L119.506 89.5995L119.448 89.148C119.396 88.7598 119.347 88.3751 119.295 87.9869C119.197 87.4228 119.113 86.8828 119.033 86.3248L118.99 86.0003L118.979 85.8522L118.941 85.6156L118.917 85.4218C118.788 84.4545 118.65 83.442 118.508 82.4505C118.42 81.9316 118.328 81.4337 118.222 80.9117L118.19 80.7569L118.164 80.6684L118.141 80.5805C118.023 79.9941 117.912 79.3872 117.802 78.7773L117.676 78.0218L117.644 77.8701C117.492 77.0231 117.352 76.1375 117.182 75.2904C116.893 73.9778 116.552 72.6158 116.307 71.7335L116.271 71.5998L116.235 71.4691L116.213 71.3596L116.168 71.1621C116.06 70.7454 115.949 70.3468 115.845 69.9306C115.87 70.3327 115.826 70.7881 115.693 71.6036C115.577 72.2141 115.418 72.9412 115.174 73.9051C115 74.4835 114.79 75.0557 114.574 75.6485C114.032 77.0852 113.355 78.4793 112.91 79.4078C112.327 80.629 111.681 81.8577 110.912 83.1921L110.85 83.3086C110.822 83.3441 110.793 83.3825 110.781 83.4427C110.281 84.3427 109.938 84.9537 109.558 85.5394C109.318 85.9353 109.036 86.3269 108.757 86.719L108.471 87.1316C107.727 88.2188 106.988 89.3907 106.196 90.743L105.887 91.276C104.792 93.246 103.958 95.2403 103.442 97.2066L103.319 97.6263L103.196 98.0676C103.184 98.1277 103.152 98.1842 103.14 98.2474L103.125 98.3286L103.089 98.4061L103.04 98.5654L102.989 98.7241C102.895 99.1054 102.799 99.4024 102.432 99.6951C102.113 99.956 101.704 100.052 101.304 99.9814C101.103 99.946 100.896 99.8443 100.731 99.7313C100.425 99.491 100.312 99.2193 100.24 98.9519L100.218 98.8454C100.054 98.2913 99.9238 97.7837 99.811 97.2821L99.7596 97.0214L99.558 96.2308L99.4281 95.7231L99.3928 95.5708C99.2859 95.1512 99.1814 94.735 99.078 94.2973C98.9334 93.641 98.8635 92.9139 98.8035 92.3596C98.6546 90.9691 98.6641 89.5009 98.6666 88.4075C98.6662 87.6523 98.7122 86.8618 98.781 85.9509L98.7757 85.8661L98.7911 85.7849L98.8206 85.5166C98.8398 85.2061 98.8692 84.9379 98.885 84.6454C98.9626 83.4627 99.0691 82.3689 99.1861 81.3174C99.3372 80.0855 99.6332 78.9598 99.9675 77.6327L100.05 77.7311C100.09 77.1944 100.244 76.6123 100.462 75.8956C100.61 75.4369 100.811 74.9254 101.045 74.3388L101.085 74.2402C101.502 73.1389 102.078 71.9383 102.847 70.6039L102.883 70.7562L102.944 70.4314C103.463 69.5345 103.801 68.9631 104.169 68.4406C104.541 67.8785 104.931 67.3566 105.419 66.7495L105.719 66.3611C105.961 66.0681 106.186 65.7504 106.411 65.4357L106.604 65.1745L106.801 64.8952C106.94 64.7084 107.079 64.5217 107.218 64.3379C107.444 64.0202 107.686 63.7272 107.929 63.4126C108.175 63.0986 108.433 62.8303 108.838 62.4384C109.254 61.9865 109.645 61.5519 110.047 61.0758L110.182 60.9131L110.232 60.8567C110.499 60.5463 110.734 60.2738 110.934 59.9951C111.191 59.6209 111.45 59.2251 111.687 58.8443C111.78 58.6928 111.87 58.5409 111.981 58.3925L112.013 58.336L112.074 58.2225L112.139 58.1065L112.311 57.8417C112.408 57.6722 112.506 57.4781 112.583 57.2804C112.642 57.0826 112.743 56.8705 112.898 56.6025C112.652 55.4031 112.443 54.2135 112.28 53.2184L112.196 52.6784C111.969 51.3768 111.743 50.0566 111.495 48.7544C111.425 48.363 111.359 47.9536 111.287 47.5618L111.23 47.2162L111.164 46.8068L111.108 46.4396L111.08 46.2668C111.005 45.7906 110.944 45.3386 110.89 44.8661L110.873 44.6331C110.75 43.5424 110.573 42.1874 110.535 40.8569C110.458 38.7644 110.539 36.5942 110.788 34.4129C110.847 33.8764 110.904 33.3644 110.963 32.8279C110.866 33.0189 110.734 33.1636 110.62 33.333L110.509 33.4813L110.205 33.8908C109.895 34.3179 109.566 34.7448 109.238 35.1687C108.856 35.6701 108.425 36.2032 107.881 36.7788C107.565 37.1426 107.214 37.46 106.81 37.8488L106.431 38.2232C105.696 38.9361 104.976 39.6701 104.259 40.4047L103.415 41.2628C102.445 42.2482 101.473 43.23 100.501 44.2148C99.6637 45.0339 98.7808 45.8853 97.9517 46.6623L97.8742 46.7325L97.7749 46.8207L97.6539 46.9268L97.5266 47.0504C96.3251 48.1628 95.2033 49.1617 94.1911 50.0338L90.9927 52.7461C90.3528 53.2829 89.7114 53.8443 89.0843 54.4269L88.8616 54.6177L88.5885 54.8648L87.7916 55.5853C87.1941 56.1079 86.6031 56.6129 86.0121 57.1179L85.7889 57.3117L85.6685 57.4148C85.3258 57.6901 84.9792 57.9864 84.6603 58.2659C84.2889 58.5796 83.9004 58.8873 83.5321 59.2015C83.5264 59.3279 83.5164 59.494 83.4648 59.6527C83.3287 60.0483 83.1925 60.4438 83.0948 60.8461C82.7311 62.4415 82.491 64.1426 82.3178 65.6037C82.2256 66.2991 82.1743 67.0048 82.1092 67.6864L82.0747 68.078C82.004 68.886 81.9964 69.6833 81.9982 70.5444C81.9995 70.6503 82.0088 70.7141 81.9974 70.7742C81.9989 71.0883 82.0166 71.4302 82.0389 71.748L82.056 72.5279C82.0602 73.0538 82.1276 73.5691 82.1742 74.0807L82.1959 74.4015C82.3067 75.5739 82.431 76.9817 82.5834 78.3541C82.6223 78.6966 82.6613 79.0391 82.718 79.3847C82.8111 80.1997 82.9301 81.1032 82.9876 81.9928L83.0255 82.7763L83.0365 82.9274C83.0967 84.0288 83.1488 85.1722 83.1458 86.2842C83.1371 87.5225 83.0772 88.7084 82.9656 89.8448C82.8546 90.9781 82.627 92.178 82.3145 93.4872C81.7684 95.7217 80.9871 97.8744 80.0404 99.9327L79.8702 100.282C79.6966 100.649 79.519 101.037 79.3478 101.408L79.2515 101.578C79.0442 102.026 78.8305 102.492 78.4507 102.866C78.196 103.113 77.7785 103.251 77.3959 103.206L77.316 103.192C77.1149 103.156 76.8418 103.065 76.7182 102.959C76.4749 102.726 76.4369 102.701 76.2682 102.398C76.157 102.211 76.116 101.992 76.0743 101.776L76.0552 101.667C76.0292 101.579 76.0229 101.516 75.9969 101.427L75.9778 101.318L75.9558 101.209C75.9147 100.99 75.8898 100.799 75.8447 100.602C75.4563 99.3774 74.9056 98.2519 74.4246 97.3064C74.0312 96.5442 73.6584 95.7856 73.2719 95.0028L72.8387 94.1279C72.3047 93.027 71.8322 92.0209 71.443 91.0263C71.0661 90.0805 70.7756 89.0008 70.5746 88.2072L70.3651 87.4587C70.0492 86.2874 69.8521 85.0377 69.6743 83.9125L69.6239 83.6302C69.4454 82.508 69.3559 81.3363 69.3168 80.0273L69.3096 79.8396C69.2864 79.2047 69.2848 78.5518 69.3409 77.934C69.4015 77.292 69.4873 76.6142 69.6041 75.9014C69.7313 75.2308 69.8763 74.5633 70.0415 73.918C70.1917 73.3354 70.4075 72.7457 70.7345 72.0046C71.0255 71.3411 71.375 70.691 71.6999 70.0739L71.7578 69.9784L71.7344 70.1017C71.8868 69.7494 72.0948 69.41 72.2788 69.085L72.5275 68.644L72.6204 68.4926L72.5596 68.5875L72.4356 68.6931L72.2199 68.8633L72.096 68.9689L72.0214 69.0397C71.4274 69.5442 70.7411 70.1164 70.1003 70.6748C68.3181 72.3343 66.5678 74.1487 64.5349 76.3731L64.3818 76.5357C63.4691 77.528 62.6942 78.358 61.8708 79.2012L61.0872 79.9645L61.0126 80.0352C60.303 80.7307 59.5198 81.4754 58.8504 82.2805C58.266 82.9762 57.696 83.6931 57.0972 84.4485L57.0468 84.5049L56.9618 84.6143L56.202 85.5743C55.9846 85.8499 55.792 86.1081 55.5741 86.3867C55.6863 86.5526 55.7274 86.7711 55.7226 87.022C55.6901 87.2897 55.6986 87.5833 55.7203 87.9041C56.0787 90.8013 56.6572 93.2959 57.5111 95.547L57.4352 95.5118L57.5578 95.6391L57.5808 95.7271L57.4652 95.5793L57.8079 96.2705C58.061 96.9023 58.3072 97.5548 58.5603 98.1866C59.112 99.6293 59.4813 100.745 59.7303 101.817C59.8244 102.191 59.8979 102.561 59.995 102.936L60.1578 103.592C60.27 104.097 60.3798 104.598 60.496 105.081C61.068 107.513 61.3376 110.121 61.2683 112.775C61.2045 114.948 60.7922 117.122 60.417 118.778C60.3039 119.261 60.2052 119.685 60.0581 120.122C59.9179 120.539 59.7536 120.97 59.5928 121.383L59.4794 121.658C59.0454 122.738 58.5798 123.79 58.2207 124.588L58.1514 124.743C58.011 125.032 57.8735 125.322 57.7602 125.597L57.4812 126.198C57.3318 126.55 57.1582 126.918 57.0294 127.274C56.8245 127.807 56.4453 128.178 55.9904 128.288C55.7946 128.337 55.6061 128.347 55.4079 128.312C54.9879 128.239 54.6233 127.985 54.4246 127.614C54.3036 127.382 54.266 127.145 54.2116 126.884L54.1549 126.538C54.0554 126.079 53.9767 125.624 53.8692 125.208C53.73 124.636 53.5183 124.011 53.2541 123.228C52.7302 121.962 52.2145 120.861 51.6651 119.841C51.0084 118.613 50.5079 117.223 50.0731 116.034C49.854 115.448 49.6757 114.873 49.4784 114.27L49.3856 114.002L49.3458 113.889C49.1612 113.331 49.0192 112.887 48.8991 112.424C48.5994 111.281 48.4122 110.092 48.2568 109.058L48.208 108.67C48.0863 107.893 47.9102 106.856 47.8175 105.829C47.7152 104.951 47.6657 104.019 47.6393 102.836C47.6222 102.057 47.6331 101.241 47.6574 100.469L47.6601 100.342C47.6787 99.6955 47.7621 98.9333 47.9209 97.8705L48.0213 97.3412L48.0691 96.9923L48.096 96.8509C48.1422 96.6074 48.1682 96.3571 48.2144 96.1136L47.7942 96.7978L47.2295 97.5996L47.0861 97.8074L46.9433 98.0122L46.8935 98.0656C46.162 99.1985 45.5056 100.258 44.8556 101.299C44.2274 102.323 43.5689 103.506 42.8618 104.833C42.0458 106.411 41.2881 108.02 40.5847 109.553L40.548 109.634L40.4758 109.789C40.0628 110.661 39.6785 111.494 39.2729 112.327C39.0375 112.811 38.8164 113.316 38.5809 113.799L38.5483 113.859L38.5161 113.915L38.487 113.972L38.3787 114.205L38.0877 114.869L38.0225 115.003C37.9662 115.413 37.9064 115.825 37.8082 116.246C37.7808 116.39 37.7293 116.549 37.7025 116.69L37.6637 116.895C37.6295 117.075 37.574 117.255 37.5392 117.438C37.5124 117.58 37.485 117.724 37.4789 117.869C37.4266 118.257 37.3955 118.631 37.3753 118.963C37.3676 119.214 37.3421 119.461 37.3166 119.708C37.2915 119.937 37.2661 120.184 37.2446 120.41C37.1911 121.24 37.1549 122.075 37.1399 122.912L37.1175 124.126C37.0783 125.316 37.0182 126.713 36.8397 128.089C36.7425 128.827 36.5999 129.579 36.4653 130.288L36.2879 131.224C36.2297 131.53 36.1721 131.834 36.0938 132.134C35.9995 132.518 35.884 132.918 35.7696 133.295L35.5907 133.916C35.4043 134.577 35.2206 135.11 34.999 135.618L34.9297 135.773C34.4612 136.825 33.9275 138.011 33.2538 139.049C31.914 141.1 30.1077 143.113 27.8854 145.03C27.6163 145.257 27.3442 145.482 27.0791 145.687L26.934 145.808C26.7572 145.966 26.5667 146.1 26.4175 146.242C26.2448 146.379 26.0709 146.538 25.9011 146.676L25.7026 146.853L25.4335 147.079L25.034 147.428C24.5704 147.809 24.1073 148.188 23.6447 148.547C23.1811 148.929 22.7392 149.292 22.3003 149.656L22.0071 149.897L21.8624 149.999L21.739 150.101L21.5692 150.239C21.3993 150.377 21.2507 150.5 21.1055 150.621C20.9574 150.741 20.8117 150.864 20.6636 150.984C20.2539 151.291 19.8654 151.599 19.4029 151.539L19.1426 151.493C19.0035 151.469 18.8655 151.423 18.7005 151.31C18.4452 151.14 18.364 151.021 18.2184 150.805C18.0624 150.548 18.0234 150.205 18.0288 149.952C18.0572 149.705 18.1034 149.461 18.1382 149.278C18.2096 148.998 18.2444 148.815 18.2999 148.635C18.3742 148.356 18.4451 148.095 18.4993 147.809C18.6054 147.346 18.6904 146.898 18.7754 146.45C18.9239 145.345 18.9723 144.22 18.9926 143.129L19.0065 142.734L19.0597 141.357L19.0815 140.92L19.0893 140.67L19.1388 139.103C19.1747 138.478 19.2101 137.857 19.2677 137.214L19.2983 136.844C19.3499 136.346 19.3831 135.849 19.4548 135.358C19.5475 134.659 19.6848 133.823 19.9261 132.986C20.0936 132.425 20.302 131.874 20.503 131.363L20.5425 131.267L20.5796 131.168C21.0331 129.986 21.506 128.895 22.0287 127.896C22.2888 127.395 22.5489 126.894 22.8262 126.399C23.2 125.75 23.6259 125.132 23.9258 124.743C24.5153 123.924 25.2531 123.193 25.7929 122.636C26.0447 122.388 26.2794 122.134 26.514 121.88C27.16 121.198 27.8375 120.559 28.6926 119.871C28.9864 119.627 29.2963 119.412 29.6108 119.172L29.7061 119.105L29.8478 119.002L30.1371 118.783L30.2329 118.713C30.8366 118.253 31.4484 117.752 32.0508 117.187C32.4295 116.834 32.8644 116.491 33.2742 116.184L33.3735 116.096L34.185 115.524C34.2556 115.474 34.3084 115.421 34.379 115.372C34.5264 115.143 34.7421 114.973 34.9947 114.849L35.0422 114.712L35.1155 114.535L35.1556 114.436C35.2248 114.281 35.2931 114.147 35.3412 114.006C35.3897 113.847 35.4539 113.734 35.5158 113.617L35.5633 113.479L35.8709 112.841C36.0936 112.311 36.3394 111.789 36.603 111.27L36.7009 111.076L36.7731 110.92L36.8745 110.708L37.0046 110.458L37.0407 110.38L37.2079 110.031L37.6124 109.219L38.2763 107.782C38.6245 107.026 38.9762 106.268 39.3451 105.516C39.9002 104.33 40.5489 103.102 41.2331 101.88C41.7339 100.98 42.2836 100.048 43.0071 98.957C43.2686 98.5617 43.5133 98.1418 43.7748 97.7465C44.1296 97.1813 44.489 96.5919 44.8615 96.0298L44.929 96.1256L44.8902 95.9914L44.9832 95.8399C45.3924 95.1972 45.8431 94.5618 46.268 93.9654C45.4604 94.5162 44.6131 94.9544 43.6492 95.459C42.5522 96.021 41.4572 96.4591 40.163 96.9646C39.0049 97.4133 37.7439 97.8408 36.4794 98.2055C35.2746 98.5621 34.0266 98.8241 32.6597 99.0682C31.4231 99.27 30.2072 99.4755 28.9613 99.6135L28.476 99.6741L27.9877 99.7342L27.7327 99.7732C27.1181 99.8546 26.5529 99.9011 25.9842 99.9502L25.5028 99.9897L25.2305 100.007C24.9795 100.025 24.7078 100.039 24.4568 100.057C24.2466 100.086 24.0173 100.086 23.8111 100.093L23.6617 100.107C23.3924 100.125 23.1 100.135 22.8243 100.171C21.8995 100.26 21.0052 100.397 19.9225 100.561C19.4751 100.631 19.1121 100.692 18.7318 100.731L18.4561 100.766C18.0541 100.823 17.6704 100.879 17.2649 100.954C16.1283 101.177 15.0233 101.442 13.9552 101.739C13.6049 101.845 13.2546 101.951 12.9251 102.061L12.3123 102.245C11.9832 102.336 11.7415 102.418 11.4692 102.435C11.3652 102.436 11.2429 102.436 11.1423 102.418C10.743 102.348 10.3577 102.09 10.189 101.787C10.007 101.441 9.86377 100.891 10.1698 100.358C10.3038 100.086 10.5512 99.8777 10.7749 99.6654L10.8524 99.5951L10.9551 99.4889L11.083 99.3623C11.4702 98.9488 11.8373 98.5286 12.1361 98.1617C12.4601 97.7588 12.7887 97.3319 13.1 96.8833L13.189 96.7529C13.6075 96.174 13.9148 95.7464 14.2394 95.3405C15.6967 93.5399 17.5898 91.9403 20.1549 90.2943C20.9768 89.7646 21.8523 89.291 22.6829 88.8282L22.8236 88.7473L22.8907 88.7156L23.4924 88.3803L23.6502 88.3055C24.664 87.7475 25.7019 87.1751 26.7751 86.7549C28.1364 86.2177 29.4957 85.8044 31.0048 85.3585C31.7053 85.1462 32.4606 84.9839 33.0205 84.8525L33.2164 84.8031C33.8424 84.6616 34.7905 84.4494 35.7376 84.2588C36.3148 84.1491 36.8737 84.0392 37.4301 83.9259L37.6886 83.8689L37.7764 83.8408C38.3358 83.728 38.9124 83.6213 39.4719 83.5085C40.0692 83.4054 40.6838 83.324 41.2737 83.2601L41.4862 83.2354C42.0761 83.1714 42.67 83.0864 43.2708 82.9809L43.334 82.9702L43.4213 82.9452L43.6662 83.0722C44.4811 82.9018 45.2117 82.757 45.9101 82.6686C46.6534 82.5695 47.373 82.4662 48.1129 82.3852C48.3048 82.3568 48.5109 82.3496 48.7028 82.3212L48.8705 82.3073C49.2468 82.2896 49.5851 82.2466 49.924 82.2006C50.179 82.1616 50.4133 82.1189 50.6683 82.0799C50.9441 82.0446 51.2445 81.9918 51.5172 81.9559L51.7752 81.9174L52.0095 81.8748C52.0342 81.8574 52.1181 81.8504 52.2014 81.8464C52.7154 81.7473 53.1806 81.6801 53.6728 81.5989L54.2277 81.5101C54.6762 81.4182 55.0886 81.323 55.5054 81.1882C55.6599 81.1314 55.8173 81.0752 55.9757 80.9975L56.1301 80.9408C56.218 80.9127 56.3053 80.8877 56.3931 80.8597C56.4627 80.8315 56.5258 80.8209 56.5924 80.7922C56.9985 80.295 57.361 79.8989 57.7447 79.5034C58.206 79.0377 58.6673 78.572 59.1251 78.1088C59.6569 77.5933 60.1681 77.0742 60.6832 76.5341C61.2793 75.9056 61.877 75.2526 62.473 74.6242L62.7288 74.3553L62.7822 74.2995C63.9019 73.0702 65.0171 71.8806 66.2092 70.7045C67.1777 69.7408 68.2581 68.7346 69.494 67.6501C69.7453 67.4209 70.0104 67.2158 70.2618 66.9866C69.6795 67.2197 69.087 67.4106 68.4743 67.5948C67.4021 67.9126 66.2093 68.2061 64.7437 68.5354L64.4192 68.6025L64.5558 68.5427C63.1953 68.8501 61.8403 69.0311 60.4421 69.1019C59.4839 69.1414 58.5188 69.1207 57.568 69.1211L57.4433 69.1178L56.4989 69.1007C55.7365 69.0908 55.0408 69.0522 54.3731 68.9781C53.9042 68.936 53.425 68.8516 52.9665 68.7709L52.3867 68.6688C51.6057 68.5313 50.8317 68.3733 50.0582 68.1968L49.087 67.9823L48.6319 67.8835C47.9378 67.7396 47.22 67.5914 46.55 67.4331C45.8224 67.2397 45.0656 67.0879 44.33 66.9366L43.8341 66.8275C42.9595 66.6518 42.1021 66.4822 41.2235 66.3276C41.0224 66.2921 40.8035 66.2536 40.6023 66.2182C39.9042 66.0953 39.3624 66.0186 38.8505 65.9937C38.0082 65.9697 37.2005 65.9736 36.4054 66.0232C36.22 66.034 36.0321 66.0413 35.8517 66.0096C35.8102 66.0023 35.7925 65.9992 35.7511 65.9919C35.2034 65.8333 34.8813 65.5653 34.7043 65.096C34.5423 64.6448 34.6347 64.1577 34.9627 63.7337C35.1881 63.416 35.5922 63.2355 35.9361 63.0661C36.3977 62.8086 36.8029 62.5257 37.2211 62.158C37.4477 61.9462 37.675 61.7314 37.8976 61.5406C38.3726 61.0991 38.8012 60.6929 39.2609 60.3325C39.802 59.8809 40.3737 59.4781 40.9235 59.0932C41.9962 58.3374 43.1334 57.6768 44.3563 57.1121C45.3253 56.6767 46.4163 56.2597 47.5797 55.8958C48.1258 55.7402 48.6887 55.6094 49.2314 55.4718L49.3187 55.4468C50.1198 55.2522 50.8015 55.1392 51.458 55.0466C52.8159 54.8661 53.9365 54.7278 55.0935 54.7201C55.3228 54.7201 55.529 54.7129 55.7558 54.7093L56.1114 54.688C56.9439 54.6668 57.7975 54.6306 58.6363 54.6726L58.7379 54.6688C59.27 54.7003 59.8859 54.7248 60.5042 54.8336L60.6047 54.8513C61.1047 54.9394 61.6603 55.0558 62.3879 55.2492C63.0402 55.4044 63.7165 55.5452 64.4107 55.6892C65.0456 55.8227 65.6876 55.9357 66.2984 56.0837C66.5754 56.1542 66.8495 56.2242 67.1305 56.2737C67.4466 56.348 67.7828 56.4289 68.0983 56.5062C68.4936 56.5975 68.9137 56.6715 69.3131 56.7418C69.5527 56.784 69.7716 56.8225 70.0112 56.8647C70.2331 56.9038 70.4485 56.9603 70.6882 57.0025C71.0036 57.0798 71.3398 57.1608 71.6593 57.217L71.8812 57.2561C72.1001 57.2946 72.2983 57.3295 72.5162 57.3896L72.7942 57.4386C72.954 57.4667 73.131 57.5165 73.2907 57.5446C73.5126 57.5837 73.7482 57.6469 73.9671 57.6854C74.2441 57.756 74.5015 57.8013 74.7825 57.8507C75.1434 57.9143 75.4669 57.9495 75.7904 57.9847L75.891 58.0024L76.2139 58.0406C76.4782 58.0654 76.7355 58.1107 76.9998 58.1354C77.4446 58.192 77.8824 58.2691 78.3099 58.3039C78.4943 58.3146 78.6822 58.3073 78.8706 58.297C79.3445 58.2965 79.78 58.2893 80.2248 58.3458C80.9145 57.7556 81.5302 57.2332 82.1419 56.7318C82.5808 56.3678 83.0227 56.0043 83.4646 55.6408L83.833 55.3266C84.3247 54.9097 84.8372 54.4965 85.3289 54.0797C86.0399 53.4901 86.7583 52.8614 87.4319 52.2435L87.4847 52.1907L88.4796 51.2968C89.1492 50.7 89.8384 50.1283 90.504 49.5525C90.8724 49.2382 91.2638 48.9311 91.6362 48.5958L92.4217 47.9355C92.867 47.554 93.3267 47.1936 93.7558 46.7844C94.375 46.2439 94.9774 45.6787 95.5764 45.1316L96.0796 44.6546L96.2069 44.531C96.9838 43.8038 97.6143 43.2032 98.1749 42.6493C97.483 42.9284 96.7618 43.137 96.1283 43.3176C95.8199 43.4125 95.5151 43.5049 95.2072 43.5967C94.6818 43.7559 94.1741 43.9183 93.6314 44.0558C92.7637 44.2791 91.854 44.498 90.8225 44.7142L90.9305 44.6928C90.4372 44.7955 89.941 44.8977 89.466 45.0006C88.9055 45.135 88.2588 45.2728 87.5776 45.3829C86.9383 45.4816 86.3066 45.5569 85.6954 45.6202C84.5413 45.7091 83.3241 45.8087 82.1 45.848C80.7488 45.8805 79.5234 45.8139 78.3603 45.6278C78.1799 45.596 77.9817 45.5611 77.8013 45.5294C76.8014 45.3533 75.8089 45.1382 74.8378 44.9238L74.6987 44.8993C73.7862 44.6982 72.815 44.4837 71.8794 44.1947L72.0598 44.2265C71.3948 44.0255 70.7816 43.8741 70.2259 43.7576C69.868 43.6946 69.5111 43.61 69.1502 43.5464C68.8514 43.4939 68.5319 43.4376 68.2372 43.364L67.9354 43.3108C67.4355 43.2228 66.9523 43.1595 66.4232 43.1285L66.2979 43.1282C65.9503 43.1074 65.6268 43.0722 65.2827 43.0334C64.8833 42.9631 64.5532 42.7372 64.3598 42.4514C64.0207 41.9504 64.1211 41.4212 64.273 41.0719C64.3977 40.7365 64.73 40.4998 64.998 40.2952C65.1886 40.161 65.3584 40.0231 65.5489 39.8888C65.7889 39.7197 66.0293 39.5321 66.2692 39.363C66.4638 39.2077 66.6577 39.0554 66.8523 38.9001C67.1702 38.6422 67.464 38.3987 67.7819 38.1408L68.3368 37.7133C68.6266 37.4909 68.9164 37.2684 69.2062 37.046C70.1773 36.294 70.9434 35.7359 71.6735 35.2554C72.5931 34.6621 73.5383 34.0299 74.5234 33.5103C75.5074 33.0123 76.5225 32.5602 77.5676 32.1755C78.322 31.8888 79.1967 31.645 80.2528 31.4114L80.7254 31.3051C81.5927 31.1004 82.4777 30.8988 83.3507 30.7604C83.7952 30.6895 84.2588 30.6468 84.7062 30.5764L84.8319 30.5582C85.1491 30.5301 85.4673 30.4804 85.7844 30.4524C86.0147 30.4308 86.2243 30.4055 86.4581 30.3814C86.8803 30.3314 87.3238 30.2821 87.7592 30.2749C88.1533 30.2603 88.5393 30.2879 88.9329 30.2919L89.1345 30.3088L89.9773 30.3297C90.6386 30.3405 91.2763 30.3471 91.9306 30.3784L92.0105 30.3925C92.0312 30.3961 92.0312 30.3961 92.0519 30.3997C94.0564 30.5009 96.0389 30.8313 97.9598 31.1477L99.0849 31.324C99.9468 31.454 100.811 31.5875 101.652 31.7138L102.017 31.7563L102.562 31.8306C103.125 31.911 103.684 32.0094 104.276 32.0483C104.645 32.0512 105.038 32.0582 105.408 32.0581C105.844 32.0509 106.279 32.0436 106.727 32.0821C107.096 32.085 107.477 32.0463 107.836 32.0039L108.046 31.9787L108.259 31.9509C108.513 31.5978 108.784 31.2478 109.058 30.8953C109.58 30.2101 110.129 29.4896 110.648 28.7201C111.089 28.0209 111.534 27.3223 111.975 26.6231L112.359 26.0164C112.628 25.582 112.855 25.1404 113.104 24.6994L113.194 24.5474L113.23 24.4699C113.458 24.0283 113.689 23.5842 113.955 23.1493C114.623 22.027 115.087 21.2076 115.549 20.3008C116.027 19.3128 116.433 18.2531 116.779 17.4098L116.824 17.2901L116.856 17.2336C117.101 16.3756 117.83 16.1249 118.407 16.2264Z" fill="#FE946F"/>
</svg>
