<svg width="183" height="189" viewBox="0 0 183 189" fill="none" xmlns="http://www.w3.org/2000/svg">
<path d="M77.6336 173.313C119.795 181.247 160.151 152.097 167.772 108.206C175.393 64.3138 147.394 22.3006 105.233 14.3664C63.072 6.43221 22.7157 35.5816 15.0943 79.4733C7.47305 123.365 35.4728 165.378 77.6336 173.313Z" stroke="#0A3D48" stroke-opacity="0.5" stroke-width="2.87761" stroke-miterlimit="10"/>
<path d="M66.9766 28.8115L70.1035 27.8438L73.0016 37.3052L77.9831 35.786L78.8603 38.6753L70.7526 41.1623L66.9766 28.8115Z" fill="#0A3D48" fill-opacity="0.5"/>
<path d="M81.4008 38.0209L80.1895 25.1593L84.7452 24.7933C86.1336 24.6465 87.5227 24.4997 88.7321 23.9883L89.7664 26.9104C88.388 27.4719 87.2323 27.6634 85.1172 27.8362L83.8057 27.9978L83.9635 29.9266L88.6101 29.4956L88.8534 32.3487L84.2068 32.7798L84.3646 34.7086L89.9063 34.2013L90.2001 37.2294L81.4008 38.0209Z" fill="#0A3D48" fill-opacity="0.5"/>
<path d="M101.847 25.4608L105.035 38.9369L101.514 38.4273L101.074 36.281L96.5443 35.5782L95.5875 37.4567L92.0674 36.9471L98.5738 24.916L101.847 25.4608ZM99.7262 29.5078L97.9446 32.9601L100.52 33.3711L99.7262 29.5078Z" fill="#0A3D48" fill-opacity="0.5"/>
<path d="M111.594 27.7773L117.067 30.0634C119.913 31.2687 120.483 33.6064 119.772 35.4511C119.22 36.8309 117.904 37.9818 116.295 38.004L117.441 44.0833L113.766 42.5543L112.966 37.284L111.621 36.6962L109.937 40.9956L106.87 39.6656L111.594 27.7773ZM113.66 31.7219L112.672 34.2565L114.691 35.1381C115.738 35.5864 116.377 35.1309 116.639 34.521C116.902 33.911 116.726 33.0518 115.677 32.6035L113.66 31.7219Z" fill="#0A3D48" fill-opacity="0.5"/>
<path d="M135.289 41.4521L128.012 51.8552L125.38 49.866L125.763 41.8544L121.961 47.3134L119.251 45.3093L126.528 34.9062L129.16 36.8955L128.555 45.2768L132.644 39.5428L135.289 41.4521Z" fill="#0A3D48" fill-opacity="0.5"/>
<path d="M44.844 123.838L36.6232 134.633L34.828 131.485L36.1454 129.84L33.7858 125.759L31.7111 126.187L29.916 123.039L43.1639 120.959L44.844 123.838ZM40.4888 124.488L36.7679 125.177L38.0628 127.487L40.4888 124.488Z" fill="#0A3D48" fill-opacity="0.5"/>
<path d="M55.9637 137.438L47.0895 146.379L44.8489 143.97L46.565 136.133L41.9257 140.853L39.6074 138.429L48.4816 129.488L50.7222 131.897L48.7972 140.025L53.7231 135.029L55.9637 137.438Z" fill="#0A3D48" fill-opacity="0.5"/>
<path d="M67.9932 145.583L59.7204 149.941L57.3767 153.867L54.5466 152.087L56.8904 148.162L56.9065 138.508L60.1627 140.617L59.8447 146.334L64.6596 143.459L67.9932 145.583Z" fill="#0A3D48" fill-opacity="0.5"/>
<path d="M81.8493 149.954L85.2069 150.927L78.4929 162.328L75.2122 161.37L75.0166 154.906L71.7637 160.462L68.483 159.503L68.0938 146.082L71.4521 147.055L71.222 155.579L75.0424 148.073L78.0261 148.892L77.7961 157.416L81.8493 149.954Z" fill="#0A3D48" fill-opacity="0.5"/>
<path d="M98.0181 150.342L98.4246 163.208L95.1326 163.237L95.0053 158.263L90.4946 158.388L90.6219 163.363L87.3299 163.392L86.9102 150.607L90.2022 150.577L90.3295 155.552L94.8402 155.426L94.7129 150.451L98.0181 150.342Z" fill="#0A3D48" fill-opacity="0.5"/>
<path d="M104.038 162.238L100.765 149.727L105.127 148.582C106.478 148.181 107.829 147.779 108.909 147.078L110.385 149.754C109.122 150.585 108.032 150.871 105.928 151.459L104.668 151.795L105.15 153.703L109.604 152.493L110.34 155.275L105.886 156.485L106.368 158.393L111.744 156.947L112.531 159.903L104.038 162.238Z" fill="#0A3D48" fill-opacity="0.5"/>
<path d="M111.766 146.479L116.959 143.683C119.686 142.227 121.751 143.282 122.66 145.023C123.39 146.399 123.342 148.121 122.402 149.425L127.653 152.493L124.212 154.389L119.801 151.564L118.49 152.22L120.603 156.335L117.694 157.921L111.766 146.479ZM115.928 147.442L117.196 149.911L119.13 148.88C120.104 148.325 120.239 147.526 119.853 146.958C119.559 146.324 118.824 145.936 117.85 146.491L115.928 147.442Z" fill="#0A3D48" fill-opacity="0.5"/>
<path d="M131.256 149.627L123.05 139.807L126.525 136.762C127.566 135.807 128.608 134.851 129.275 133.742L131.699 135.526C130.915 136.86 130.069 137.606 128.468 139.031L127.439 139.906L128.713 141.387L132.202 138.262L134.067 140.516L130.578 143.641L131.852 145.123L136.083 141.397L138.011 143.746L131.256 149.627Z" fill="#0A3D48" fill-opacity="0.5"/>
<path d="M83.8006 139.31C108.199 143.985 131.393 127.417 135.607 102.305C139.822 77.193 123.46 53.0461 99.0618 48.3714C74.6645 43.6967 51.4696 60.2645 47.2553 85.3762C43.0409 110.488 59.4028 134.636 83.8006 139.31Z" stroke="#0A3D48" stroke-opacity="0.5" stroke-width="2.87761" stroke-miterlimit="10"/>
<path d="M47.4805 85.5703L134.615 101.968" stroke="#0A3D48" stroke-opacity="0.5" stroke-width="2.87761" stroke-miterlimit="10"/>
<path d="M99.3092 48.4844L83.5586 139.197" stroke="#0A3D48" stroke-opacity="0.5" stroke-width="2.87761" stroke-miterlimit="10"/>
<path d="M85.7874 47.9688C85.7874 47.9688 73.295 64.3514 68.9939 89.6272C64.6924 114.902 71.0128 134.788 71.0128 134.788" stroke="#0A3D48" stroke-opacity="0.5" stroke-width="2.87761" stroke-miterlimit="10"/>
<path d="M98.3113 139.945C98.3113 139.945 110.804 123.562 115.105 98.2862C119.406 73.011 113.086 53.125 113.086 53.125" stroke="#0A3D48" stroke-opacity="0.5" stroke-width="2.87761" stroke-miterlimit="10"/>
<path d="M150.162 109.202C152.377 109.618 154.496 108.087 154.897 105.782C155.297 103.477 153.827 101.27 151.612 100.854C149.397 100.437 147.278 101.968 146.877 104.273C146.477 106.578 147.947 108.785 150.162 109.202Z" fill="#0A3D48" fill-opacity="0.5"/>
<path d="M31.5664 86.8843C33.7809 87.3007 35.9007 85.7697 36.3009 83.4643C36.7013 81.1589 35.2305 78.9517 33.016 78.5353C30.8015 78.1182 28.6818 79.6492 28.2815 81.9553C27.8812 84.2607 29.3519 86.4673 31.5664 86.8843Z" fill="#0A3D48" fill-opacity="0.5"/>
</svg>
